<svg xmlns="http://www.w3.org/2000/svg" viewBox="0 0 128 128"><title>icon11.1glyph</title><g id="location"><path d="M64,39.43a11.12,11.12,0,0,0-10.92,9.1H74.92A11.12,11.12,0,0,0,64,39.43Z"/><path d="M77.5,52.53h-27a.74.74,0,0,0,0,1.47h27a.74.74,0,0,0,0-1.47Z"/><path d="M64.27,110a11.63,11.63,0,0,1-7.83-3.27c-11.85,1.09-16.65,4.31-16.65,5.52,0,1.75,8.23,5.85,24.21,5.85s24.21-4.1,24.21-5.85c0-1.21-4.89-4.43-16.74-5.52A8.85,8.85,0,0,1,64.27,110Z"/><path d="M65.05,34.38a1.05,1.05,0,1,0-2.1,0v1h2.1Z"/><path d="M64,9.93A33.85,33.85,0,0,0,30.19,43.74c0,9.89,10.36,31.49,28.43,59.27l.05.08a6.36,6.36,0,0,0,10.66,0l0-.08C87.45,75.23,97.81,53.63,97.81,43.74A33.85,33.85,0,0,0,64,9.93ZM77.5,58h-27A4.74,4.74,0,0,1,49,48.77,15.12,15.12,0,0,1,59,36.3V34.38a5,5,0,1,1,10.1,0V36.3A15.12,15.12,0,0,1,79,48.77,4.74,4.74,0,0,1,77.5,58Z"/></g></svg>